<svg width="454" height="281" viewBox="0 0 454 281" fill="none" xmlns="http://www.w3.org/2000/svg">
<g clip-path="url(#clip0_106_3429)">
<rect width="454" height="281" fill="#131315"/>
<g clip-path="url(#clip1_106_3429)">
<path d="M0 20C0 8.95431 8.9543 0 20 0H434C445.046 0 454 8.95431 454 20V261.145C454 272.19 445.046 281.145 434 281.145H20C8.95429 281.145 0 272.19 0 261.145V20Z" fill="#131315"/>
<path d="M337.8 242.613H338.895L341.69 249.568L344.479 242.613H345.581L342.112 251.145H341.257L337.8 242.613ZM337.442 242.613H338.409L338.567 247.817V251.145H337.442V242.613ZM344.966 242.613H345.932V251.145H344.807V247.817L344.966 242.613ZM351.493 250.061V246.797C351.493 246.547 351.442 246.33 351.341 246.147C351.243 245.959 351.094 245.815 350.895 245.713C350.696 245.611 350.45 245.561 350.157 245.561C349.884 245.561 349.643 245.608 349.436 245.701C349.233 245.795 349.073 245.918 348.956 246.07C348.842 246.223 348.786 246.387 348.786 246.563H347.702C347.702 246.336 347.76 246.111 347.878 245.889C347.995 245.666 348.163 245.465 348.382 245.285C348.604 245.102 348.87 244.957 349.178 244.852C349.491 244.742 349.839 244.688 350.221 244.688C350.682 244.688 351.089 244.766 351.44 244.922C351.796 245.078 352.073 245.315 352.272 245.631C352.475 245.943 352.577 246.336 352.577 246.809V249.762C352.577 249.973 352.594 250.197 352.63 250.436C352.669 250.674 352.725 250.879 352.8 251.051V251.145H351.669C351.614 251.02 351.571 250.854 351.54 250.647C351.509 250.436 351.493 250.24 351.493 250.061ZM351.68 247.301L351.692 248.063H350.596C350.288 248.063 350.012 248.088 349.77 248.139C349.528 248.186 349.325 248.258 349.161 248.356C348.997 248.453 348.872 248.576 348.786 248.725C348.7 248.869 348.657 249.039 348.657 249.234C348.657 249.434 348.702 249.615 348.792 249.779C348.882 249.943 349.016 250.074 349.196 250.172C349.38 250.266 349.604 250.313 349.87 250.313C350.202 250.313 350.495 250.242 350.749 250.102C351.003 249.961 351.204 249.789 351.352 249.586C351.505 249.383 351.587 249.186 351.598 248.994L352.061 249.516C352.034 249.68 351.96 249.861 351.839 250.061C351.717 250.26 351.555 250.451 351.352 250.635C351.153 250.815 350.915 250.965 350.637 251.086C350.364 251.203 350.055 251.262 349.712 251.262C349.282 251.262 348.905 251.178 348.581 251.01C348.26 250.842 348.01 250.617 347.831 250.336C347.655 250.051 347.567 249.733 347.567 249.381C347.567 249.041 347.634 248.742 347.766 248.484C347.899 248.223 348.091 248.006 348.341 247.834C348.591 247.658 348.891 247.526 349.243 247.436C349.594 247.346 349.987 247.301 350.421 247.301H351.68ZM355.969 250.488L357.733 244.805H358.893L356.35 252.123C356.292 252.279 356.214 252.447 356.116 252.627C356.022 252.811 355.901 252.984 355.753 253.149C355.604 253.313 355.425 253.445 355.214 253.547C355.007 253.652 354.759 253.705 354.469 253.705C354.384 253.705 354.274 253.693 354.141 253.67C354.009 253.647 353.915 253.627 353.86 253.611L353.854 252.733C353.885 252.736 353.934 252.74 354.001 252.744C354.071 252.752 354.12 252.756 354.147 252.756C354.393 252.756 354.602 252.723 354.774 252.656C354.946 252.594 355.091 252.486 355.208 252.334C355.329 252.186 355.432 251.981 355.518 251.719L355.969 250.488ZM354.675 244.805L356.321 249.727L356.602 250.869L355.823 251.268L353.491 244.805H354.675Z" fill="white"/>
<path d="M273.333 243.369L270.509 251.145H269.354L272.606 242.613H273.35L273.333 243.369ZM275.7 251.145L272.87 243.369L272.852 242.613H273.596L276.86 251.145H275.7ZM275.554 247.986V248.912H270.761V247.986H275.554ZM278.923 246.024V253.582H277.833V244.805H278.829L278.923 246.024ZM283.194 247.922V248.045C283.194 248.506 283.139 248.934 283.03 249.328C282.921 249.719 282.761 250.059 282.55 250.348C282.343 250.637 282.087 250.861 281.782 251.022C281.477 251.182 281.128 251.262 280.733 251.262C280.331 251.262 279.975 251.195 279.667 251.063C279.358 250.93 279.096 250.736 278.882 250.483C278.667 250.229 278.495 249.924 278.366 249.568C278.241 249.213 278.155 248.813 278.108 248.367V247.711C278.155 247.242 278.243 246.822 278.372 246.451C278.501 246.08 278.671 245.764 278.882 245.502C279.096 245.236 279.356 245.035 279.661 244.899C279.966 244.758 280.317 244.688 280.716 244.688C281.114 244.688 281.468 244.766 281.776 244.922C282.085 245.074 282.345 245.293 282.555 245.578C282.766 245.863 282.925 246.205 283.03 246.604C283.139 246.998 283.194 247.438 283.194 247.922ZM282.104 248.045V247.922C282.104 247.606 282.071 247.309 282.005 247.031C281.938 246.75 281.835 246.504 281.694 246.293C281.557 246.078 281.382 245.91 281.167 245.789C280.952 245.664 280.696 245.602 280.399 245.602C280.126 245.602 279.887 245.649 279.684 245.742C279.485 245.836 279.315 245.963 279.175 246.123C279.034 246.279 278.919 246.459 278.829 246.662C278.743 246.861 278.679 247.068 278.636 247.283V248.801C278.714 249.074 278.823 249.332 278.964 249.574C279.104 249.813 279.292 250.006 279.526 250.154C279.761 250.299 280.055 250.371 280.411 250.371C280.704 250.371 280.956 250.311 281.167 250.19C281.382 250.065 281.557 249.895 281.694 249.68C281.835 249.465 281.938 249.219 282.005 248.942C282.071 248.66 282.104 248.361 282.104 248.045ZM285.661 245.801V251.145H284.577V244.805H285.632L285.661 245.801ZM287.641 244.77L287.636 245.777C287.546 245.758 287.46 245.746 287.378 245.742C287.3 245.734 287.21 245.731 287.108 245.731C286.858 245.731 286.637 245.77 286.446 245.848C286.255 245.926 286.093 246.035 285.96 246.176C285.827 246.317 285.721 246.484 285.643 246.68C285.569 246.871 285.52 247.082 285.497 247.313L285.192 247.488C285.192 247.106 285.229 246.746 285.304 246.41C285.382 246.074 285.501 245.777 285.661 245.52C285.821 245.258 286.024 245.055 286.27 244.91C286.52 244.762 286.817 244.688 287.161 244.688C287.239 244.688 287.329 244.697 287.43 244.717C287.532 244.733 287.602 244.75 287.641 244.77Z" fill="white"/>
<path d="M203.371 242.613H204.467L207.261 249.568L210.051 242.613H211.152L207.683 251.145H206.828L203.371 242.613ZM203.013 242.613H203.98L204.138 247.817V251.145H203.013V242.613ZM210.537 242.613H211.504V251.145H210.379V247.817L210.537 242.613ZM217.064 250.061V246.797C217.064 246.547 217.013 246.33 216.912 246.147C216.814 245.959 216.666 245.815 216.467 245.713C216.267 245.611 216.021 245.561 215.728 245.561C215.455 245.561 215.215 245.608 215.008 245.701C214.804 245.795 214.644 245.918 214.527 246.07C214.414 246.223 214.357 246.387 214.357 246.563H213.273C213.273 246.336 213.332 246.111 213.449 245.889C213.566 245.666 213.734 245.465 213.953 245.285C214.176 245.102 214.441 244.957 214.75 244.852C215.062 244.742 215.41 244.688 215.793 244.688C216.254 244.688 216.66 244.766 217.011 244.922C217.367 245.078 217.644 245.315 217.844 245.631C218.047 245.943 218.148 246.336 218.148 246.809V249.762C218.148 249.973 218.166 250.197 218.201 250.436C218.24 250.674 218.297 250.879 218.371 251.051V251.145H217.24C217.185 251.02 217.142 250.854 217.111 250.647C217.08 250.436 217.064 250.24 217.064 250.061ZM217.252 247.301L217.263 248.063H216.168C215.859 248.063 215.584 248.088 215.342 248.139C215.099 248.186 214.896 248.258 214.732 248.356C214.568 248.453 214.443 248.576 214.357 248.725C214.271 248.869 214.228 249.039 214.228 249.234C214.228 249.434 214.273 249.615 214.363 249.779C214.453 249.943 214.588 250.074 214.767 250.172C214.951 250.266 215.176 250.313 215.441 250.313C215.773 250.313 216.066 250.242 216.32 250.102C216.574 249.961 216.775 249.789 216.924 249.586C217.076 249.383 217.158 249.186 217.17 248.994L217.633 249.516C217.605 249.68 217.531 249.861 217.41 250.061C217.289 250.26 217.127 250.451 216.924 250.635C216.724 250.815 216.486 250.965 216.209 251.086C215.935 251.203 215.627 251.262 215.283 251.262C214.853 251.262 214.476 251.178 214.152 251.01C213.832 250.842 213.582 250.617 213.402 250.336C213.226 250.051 213.138 249.733 213.138 249.381C213.138 249.041 213.205 248.742 213.338 248.484C213.47 248.223 213.662 248.006 213.912 247.834C214.162 247.658 214.463 247.526 214.814 247.436C215.166 247.346 215.558 247.301 215.992 247.301H217.252ZM220.937 245.801V251.145H219.853V244.805H220.908L220.937 245.801ZM222.918 244.77L222.912 245.777C222.822 245.758 222.736 245.746 222.654 245.742C222.576 245.734 222.486 245.731 222.385 245.731C222.135 245.731 221.914 245.77 221.722 245.848C221.531 245.926 221.369 246.035 221.236 246.176C221.103 246.317 220.998 246.484 220.92 246.68C220.845 246.871 220.797 247.082 220.773 247.313L220.469 247.488C220.469 247.106 220.506 246.746 220.58 246.41C220.658 246.074 220.777 245.777 220.937 245.52C221.097 245.258 221.301 245.055 221.547 244.91C221.797 244.762 222.094 244.688 222.437 244.688C222.515 244.688 222.605 244.697 222.707 244.717C222.808 244.733 222.879 244.75 222.918 244.77Z" fill="white"/>
<path d="M139.212 242.613V251.145H138.081V242.613H139.212ZM142.786 246.451V247.377H138.966V246.451H142.786ZM143.366 242.613V243.539H138.966V242.613H143.366ZM147.052 251.262C146.611 251.262 146.21 251.188 145.851 251.039C145.495 250.887 145.189 250.674 144.931 250.401C144.677 250.127 144.482 249.803 144.345 249.428C144.208 249.053 144.14 248.643 144.14 248.197V247.951C144.14 247.436 144.216 246.977 144.368 246.574C144.521 246.168 144.728 245.824 144.99 245.543C145.251 245.262 145.548 245.049 145.88 244.904C146.212 244.76 146.556 244.688 146.911 244.688C147.365 244.688 147.755 244.766 148.083 244.922C148.415 245.078 148.687 245.297 148.898 245.578C149.109 245.856 149.265 246.184 149.366 246.563C149.468 246.938 149.519 247.348 149.519 247.793V248.279H144.784V247.395H148.435V247.313C148.419 247.031 148.361 246.758 148.259 246.492C148.161 246.227 148.005 246.008 147.79 245.836C147.575 245.664 147.282 245.578 146.911 245.578C146.665 245.578 146.439 245.631 146.232 245.736C146.025 245.838 145.847 245.99 145.699 246.193C145.55 246.397 145.435 246.645 145.353 246.938C145.271 247.231 145.23 247.568 145.23 247.951V248.197C145.23 248.498 145.271 248.781 145.353 249.047C145.439 249.309 145.562 249.539 145.722 249.738C145.886 249.938 146.083 250.094 146.314 250.207C146.548 250.32 146.814 250.377 147.111 250.377C147.493 250.377 147.818 250.299 148.083 250.143C148.349 249.986 148.581 249.777 148.781 249.516L149.437 250.037C149.3 250.244 149.126 250.442 148.915 250.629C148.704 250.817 148.445 250.969 148.136 251.086C147.831 251.203 147.47 251.262 147.052 251.262ZM150.779 242.145H151.868V249.914L151.775 251.145H150.779V242.145ZM156.152 247.922V248.045C156.152 248.506 156.097 248.934 155.988 249.328C155.878 249.719 155.718 250.059 155.507 250.348C155.296 250.637 155.038 250.861 154.734 251.022C154.429 251.182 154.079 251.262 153.685 251.262C153.282 251.262 152.929 251.193 152.624 251.057C152.324 250.916 152.07 250.715 151.863 250.453C151.656 250.192 151.49 249.875 151.365 249.504C151.243 249.133 151.159 248.715 151.113 248.25V247.711C151.159 247.242 151.243 246.822 151.365 246.451C151.49 246.08 151.656 245.764 151.863 245.502C152.07 245.236 152.324 245.035 152.624 244.899C152.925 244.758 153.275 244.688 153.673 244.688C154.072 244.688 154.425 244.766 154.734 244.922C155.042 245.074 155.3 245.293 155.507 245.578C155.718 245.863 155.878 246.205 155.988 246.604C156.097 246.998 156.152 247.438 156.152 247.922ZM155.062 248.045V247.922C155.062 247.606 155.032 247.309 154.974 247.031C154.915 246.75 154.822 246.504 154.693 246.293C154.564 246.078 154.394 245.91 154.183 245.789C153.972 245.664 153.712 245.602 153.404 245.602C153.13 245.602 152.892 245.649 152.689 245.742C152.49 245.836 152.32 245.963 152.179 246.123C152.038 246.279 151.923 246.459 151.833 246.662C151.747 246.861 151.683 247.068 151.64 247.283V248.695C151.702 248.969 151.804 249.233 151.945 249.486C152.089 249.736 152.281 249.942 152.519 250.102C152.761 250.262 153.06 250.342 153.415 250.342C153.708 250.342 153.958 250.283 154.165 250.166C154.376 250.045 154.546 249.879 154.675 249.668C154.808 249.457 154.906 249.213 154.968 248.936C155.031 248.658 155.062 248.361 155.062 248.045Z" fill="white"/>
<path d="M409.152 248.654V242.613H410.277V248.654C410.277 249.217 410.162 249.692 409.932 250.078C409.701 250.465 409.383 250.76 408.977 250.963C408.574 251.162 408.111 251.262 407.588 251.262C407.064 251.262 406.6 251.172 406.193 250.992C405.787 250.813 405.469 250.539 405.238 250.172C405.008 249.805 404.893 249.342 404.893 248.783H406.023C406.023 249.143 406.09 249.438 406.223 249.668C406.355 249.899 406.539 250.068 406.773 250.178C407.012 250.287 407.283 250.342 407.588 250.342C407.885 250.342 408.15 250.279 408.385 250.154C408.623 250.026 408.811 249.836 408.947 249.586C409.084 249.332 409.152 249.022 409.152 248.654ZM415.908 249.68V244.805H416.998V251.145H415.961L415.908 249.68ZM416.113 248.344L416.564 248.332C416.564 248.754 416.52 249.145 416.43 249.504C416.344 249.859 416.203 250.168 416.008 250.43C415.813 250.692 415.557 250.897 415.24 251.045C414.924 251.19 414.539 251.262 414.086 251.262C413.777 251.262 413.494 251.217 413.236 251.127C412.982 251.037 412.764 250.899 412.58 250.711C412.397 250.524 412.254 250.279 412.152 249.979C412.055 249.678 412.006 249.317 412.006 248.895V244.805H413.09V248.906C413.09 249.192 413.121 249.428 413.184 249.615C413.25 249.799 413.338 249.945 413.447 250.055C413.561 250.16 413.686 250.234 413.822 250.277C413.963 250.32 414.107 250.342 414.256 250.342C414.717 250.342 415.082 250.254 415.352 250.078C415.621 249.899 415.814 249.658 415.932 249.358C416.053 249.053 416.113 248.715 416.113 248.344ZM419.734 246.158V251.145H418.65V244.805H419.676L419.734 246.158ZM419.477 247.734L419.025 247.717C419.029 247.283 419.094 246.883 419.219 246.516C419.344 246.145 419.52 245.822 419.746 245.549C419.973 245.276 420.242 245.065 420.555 244.916C420.871 244.764 421.221 244.688 421.604 244.688C421.916 244.688 422.197 244.731 422.447 244.817C422.697 244.899 422.91 245.031 423.086 245.215C423.266 245.399 423.402 245.637 423.496 245.93C423.59 246.219 423.637 246.572 423.637 246.99V251.145H422.547V246.979C422.547 246.647 422.498 246.381 422.4 246.182C422.303 245.979 422.16 245.832 421.973 245.742C421.785 245.649 421.555 245.602 421.281 245.602C421.012 245.602 420.766 245.658 420.543 245.772C420.324 245.885 420.135 246.041 419.975 246.24C419.818 246.44 419.695 246.668 419.605 246.926C419.52 247.18 419.477 247.449 419.477 247.734Z" fill="white"/>
<path d="M73.429 248.654V242.613H74.554V248.654C74.554 249.217 74.4388 249.692 74.2083 250.078C73.9778 250.465 73.6595 250.76 73.2532 250.963C72.8509 251.162 72.388 251.262 71.8645 251.262C71.3411 251.262 70.8763 251.172 70.47 250.992C70.0638 250.813 69.7454 250.539 69.5149 250.172C69.2845 249.805 69.1692 249.342 69.1692 248.783H70.3001C70.3001 249.143 70.3665 249.438 70.4993 249.668C70.6321 249.899 70.8157 250.068 71.0501 250.178C71.2884 250.287 71.5599 250.342 71.8645 250.342C72.1614 250.342 72.427 250.279 72.6614 250.154C72.8997 250.026 73.0872 249.836 73.2239 249.586C73.3606 249.332 73.429 249.022 73.429 248.654ZM80.0442 250.061V246.797C80.0442 246.547 79.9935 246.33 79.8919 246.147C79.7942 245.959 79.6458 245.815 79.4466 245.713C79.2474 245.611 79.0013 245.561 78.7083 245.561C78.4349 245.561 78.1946 245.608 77.9876 245.701C77.7845 245.795 77.6243 245.918 77.5071 246.07C77.3938 246.223 77.3372 246.387 77.3372 246.563H76.2532C76.2532 246.336 76.3118 246.111 76.429 245.889C76.5462 245.666 76.7142 245.465 76.9329 245.285C77.1556 245.102 77.4212 244.957 77.7298 244.852C78.0423 244.742 78.3899 244.688 78.7727 244.688C79.2337 244.688 79.6399 244.766 79.9915 244.922C80.347 245.078 80.6243 245.315 80.8235 245.631C81.0267 245.943 81.1282 246.336 81.1282 246.809V249.762C81.1282 249.973 81.1458 250.197 81.181 250.436C81.22 250.674 81.2767 250.879 81.3509 251.051V251.145H80.22C80.1653 251.02 80.1224 250.854 80.0911 250.647C80.0599 250.436 80.0442 250.24 80.0442 250.061ZM80.2317 247.301L80.2435 248.063H79.1477C78.8392 248.063 78.5638 248.088 78.3216 248.139C78.0794 248.186 77.8763 248.258 77.7122 248.356C77.5481 248.453 77.4231 248.576 77.3372 248.725C77.2513 248.869 77.2083 249.039 77.2083 249.234C77.2083 249.434 77.2532 249.615 77.3431 249.779C77.4329 249.943 77.5677 250.074 77.7474 250.172C77.931 250.266 78.1556 250.313 78.4212 250.313C78.7532 250.313 79.0462 250.242 79.3001 250.102C79.554 249.961 79.7552 249.789 79.9036 249.586C80.056 249.383 80.138 249.186 80.1497 248.994L80.6126 249.516C80.5852 249.68 80.511 249.861 80.3899 250.061C80.2688 250.26 80.1067 250.451 79.9036 250.635C79.7044 250.815 79.4661 250.965 79.1888 251.086C78.9153 251.203 78.6067 251.262 78.263 251.262C77.8333 251.262 77.4563 251.178 77.1321 251.01C76.8118 250.842 76.5618 250.617 76.3821 250.336C76.2063 250.051 76.1185 249.733 76.1185 249.381C76.1185 249.041 76.1849 248.742 76.3177 248.484C76.4505 248.223 76.6419 248.006 76.8919 247.834C77.1419 247.658 77.4427 247.526 77.7942 247.436C78.1458 247.346 78.5384 247.301 78.972 247.301H80.2317ZM83.9173 246.158V251.145H82.8333V244.805H83.8587L83.9173 246.158ZM83.6595 247.734L83.2083 247.717C83.2122 247.283 83.2767 246.883 83.4017 246.516C83.5267 246.145 83.7024 245.822 83.929 245.549C84.1556 245.276 84.4251 245.065 84.7376 244.916C85.054 244.764 85.4036 244.688 85.7864 244.688C86.0989 244.688 86.3802 244.731 86.6302 244.817C86.8802 244.899 87.0931 245.031 87.2688 245.215C87.4485 245.399 87.5852 245.637 87.679 245.93C87.7727 246.219 87.8196 246.572 87.8196 246.99V251.145H86.7298V246.979C86.7298 246.647 86.681 246.381 86.5833 246.182C86.4856 245.979 86.3431 245.832 86.1556 245.742C85.9681 245.649 85.7376 245.602 85.4642 245.602C85.1946 245.602 84.9485 245.658 84.7259 245.772C84.5071 245.885 84.3177 246.041 84.1575 246.24C84.0013 246.44 83.8782 246.668 83.7884 246.926C83.7024 247.18 83.6595 247.449 83.6595 247.734Z" fill="white"/>
<path d="M35.3188 35.9688V37H30.0766V36.1138L32.6225 33.3369C32.9018 33.0218 33.122 32.7497 33.2831 32.5205C33.4443 32.2913 33.5571 32.0854 33.6215 31.9028C33.6896 31.7166 33.7236 31.5358 33.7236 31.3604C33.7236 31.1133 33.677 30.8966 33.5839 30.7104C33.4944 30.5207 33.3619 30.3721 33.1865 30.2646C33.011 30.1536 32.798 30.0981 32.5473 30.0981C32.2573 30.0981 32.0138 30.1608 31.8168 30.2861C31.6199 30.4115 31.4713 30.5851 31.371 30.8071C31.2708 31.0256 31.2206 31.2762 31.2206 31.5591H29.9262C29.9262 31.1043 30.0301 30.689 30.2377 30.313C30.4454 29.9334 30.7462 29.6326 31.1401 29.4106C31.534 29.1851 32.0084 29.0723 32.5634 29.0723C33.0862 29.0723 33.5302 29.16 33.8955 29.3354C34.2607 29.5109 34.5382 29.7598 34.728 30.082C34.9213 30.4043 35.018 30.7856 35.018 31.2261C35.018 31.4696 34.9786 31.7113 34.8998 31.9512C34.8211 32.1911 34.7083 32.431 34.5615 32.6709C34.4182 32.9072 34.2482 33.1453 34.0512 33.3853C33.8543 33.6216 33.6376 33.8615 33.4013 34.105L31.7094 35.9688H35.3188ZM37.3705 35.9795H37.478C37.9721 35.9795 38.3839 35.915 38.7133 35.7861C39.0463 35.6536 39.3113 35.471 39.5082 35.2383C39.7052 35.0055 39.8466 34.7316 39.9326 34.4165C40.0185 34.1014 40.0615 33.7594 40.0615 33.3906V32.0425C40.0615 31.7238 40.0274 31.4445 39.9594 31.2046C39.895 30.9611 39.8019 30.7588 39.6801 30.5977C39.562 30.4329 39.4241 30.3094 39.2665 30.2271C39.1126 30.1447 38.9461 30.1035 38.767 30.1035C38.5701 30.1035 38.3928 30.1483 38.2353 30.2378C38.0813 30.3237 37.9506 30.4437 37.8432 30.5977C37.7394 30.748 37.6588 30.9253 37.6015 31.1294C37.5478 31.3299 37.5209 31.5448 37.5209 31.7739C37.5209 31.9888 37.546 32.1965 37.5961 32.397C37.6498 32.5939 37.7286 32.7694 37.8325 32.9233C37.9363 33.0773 38.067 33.1991 38.2246 33.2886C38.3821 33.3781 38.5665 33.4229 38.7778 33.4229C38.9783 33.4229 39.1627 33.3853 39.331 33.3101C39.4993 33.2313 39.6461 33.1257 39.7714 32.9932C39.8968 32.8607 39.9952 32.7121 40.0668 32.5474C40.1385 32.3826 40.1778 32.2144 40.185 32.0425L40.6791 32.1929C40.6791 32.465 40.6219 32.7336 40.5073 32.9985C40.3963 33.2599 40.2405 33.4998 40.04 33.7183C39.843 33.9331 39.6121 34.105 39.3471 34.2339C39.0857 34.3628 38.801 34.4272 38.4931 34.4272C38.1207 34.4272 37.7913 34.3574 37.5048 34.2178C37.2219 34.0745 36.9856 33.8812 36.7958 33.6377C36.6096 33.3942 36.47 33.1149 36.3769 32.7998C36.2838 32.4847 36.2372 32.1535 36.2372 31.8062C36.2372 31.4302 36.2945 31.0775 36.4091 30.748C36.5237 30.4186 36.6902 30.1286 36.9086 29.8779C37.1271 29.6237 37.392 29.4268 37.7036 29.2871C38.0187 29.1439 38.3749 29.0723 38.7724 29.0723C39.1949 29.0723 39.5655 29.1546 39.8842 29.3193C40.2029 29.484 40.4715 29.7114 40.6899 30.0015C40.9083 30.2915 41.073 30.6281 41.184 31.0112C41.295 31.3944 41.3505 31.8062 41.3505 32.2466V32.7031C41.3505 33.165 41.3094 33.6108 41.227 34.0405C41.1446 34.4666 41.0104 34.8623 40.8242 35.2275C40.6415 35.5892 40.3998 35.9079 40.0991 36.1836C39.8019 36.4557 39.4366 36.6688 39.0034 36.8228C38.5737 36.9731 38.0688 37.0483 37.4887 37.0483H37.3705V35.9795Z" fill="white"/>
<path d="M33.9399 77.2949V78.3262H28.6977V77.4399L31.2436 74.6631C31.5229 74.348 31.7431 74.0758 31.9042 73.8467C32.0654 73.6175 32.1782 73.4116 32.2426 73.229C32.3107 73.0428 32.3447 72.862 32.3447 72.6865C32.3447 72.4395 32.2981 72.2228 32.205 72.0366C32.1155 71.8468 31.983 71.6982 31.8076 71.5908C31.6321 71.4798 31.4191 71.4243 31.1684 71.4243C30.8784 71.4243 30.6349 71.487 30.4379 71.6123C30.241 71.7376 30.0924 71.9113 29.9921 72.1333C29.8919 72.3517 29.8417 72.6024 29.8417 72.8853H28.5473C28.5473 72.4305 28.6511 72.0151 28.8588 71.6392C29.0665 71.2596 29.3673 70.9588 29.7612 70.7368C30.1551 70.5112 30.6295 70.3984 31.1845 70.3984C31.7073 70.3984 32.1513 70.4862 32.5165 70.6616C32.8818 70.8371 33.1593 71.0859 33.3491 71.4082C33.5424 71.7305 33.6391 72.1118 33.6391 72.5522C33.6391 72.7957 33.5997 73.0374 33.5209 73.2773C33.4422 73.5173 33.3294 73.7572 33.1826 73.9971C33.0393 74.2334 32.8692 74.4715 32.6723 74.7114C32.4754 74.9478 32.2587 75.1877 32.0224 75.4312L30.3305 77.2949H33.9399ZM40.0629 76.1938C40.0629 76.6808 39.9501 77.0908 39.7246 77.4238C39.499 77.7568 39.191 78.0093 38.8007 78.1812C38.414 78.3494 37.9772 78.4336 37.4902 78.4336C37.0032 78.4336 36.5646 78.3494 36.1743 78.1812C35.784 78.0093 35.476 77.7568 35.2504 77.4238C35.0248 77.0908 34.9121 76.6808 34.9121 76.1938C34.9121 75.8716 34.9747 75.5798 35.1 75.3184C35.2254 75.0534 35.4026 74.826 35.6318 74.6362C35.8645 74.4429 36.1367 74.2943 36.4482 74.1904C36.7633 74.0866 37.107 74.0347 37.4794 74.0347C37.9736 74.0347 38.4158 74.126 38.8061 74.3086C39.1964 74.4912 39.5025 74.7437 39.7246 75.0659C39.9501 75.3882 40.0629 75.7642 40.0629 76.1938ZM38.7631 76.1294C38.7631 75.868 38.7094 75.6388 38.602 75.4419C38.4946 75.245 38.3442 75.0928 38.1508 74.9854C37.9575 74.8779 37.7337 74.8242 37.4794 74.8242C37.2216 74.8242 36.9978 74.8779 36.808 74.9854C36.6183 75.0928 36.4697 75.245 36.3622 75.4419C36.2584 75.6388 36.2065 75.868 36.2065 76.1294C36.2065 76.3944 36.2584 76.6235 36.3622 76.8169C36.4661 77.0067 36.6147 77.1517 36.808 77.252C37.0014 77.3522 37.2288 77.4023 37.4902 77.4023C37.7516 77.4023 37.9772 77.3522 38.1669 77.252C38.3567 77.1517 38.5035 77.0067 38.6074 76.8169C38.7112 76.6235 38.7631 76.3944 38.7631 76.1294ZM39.8857 72.563C39.8857 72.9533 39.7818 73.3006 39.5742 73.605C39.3701 73.9093 39.0872 74.1493 38.7255 74.3247C38.3639 74.4966 37.9521 74.5825 37.4902 74.5825C37.0247 74.5825 36.6093 74.4966 36.2441 74.3247C35.8824 74.1493 35.5978 73.9093 35.3901 73.605C35.186 73.3006 35.0839 72.9533 35.0839 72.563C35.0839 72.0975 35.186 71.7054 35.3901 71.3867C35.5978 71.0645 35.8824 70.8192 36.2441 70.6509C36.6057 70.4826 37.0193 70.3984 37.4848 70.3984C37.9503 70.3984 38.3639 70.4826 38.7255 70.6509C39.0872 70.8192 39.3701 71.0645 39.5742 71.3867C39.7818 71.7054 39.8857 72.0975 39.8857 72.563ZM38.5913 72.606C38.5913 72.3732 38.5447 72.1691 38.4516 71.9937C38.3621 71.8146 38.235 71.675 38.0703 71.5747C37.9055 71.4744 37.7104 71.4243 37.4848 71.4243C37.2592 71.4243 37.0641 71.4727 36.8994 71.5693C36.7346 71.666 36.6075 71.8021 36.518 71.9775C36.4285 72.153 36.3837 72.3625 36.3837 72.606C36.3837 72.8459 36.4285 73.0553 36.518 73.2344C36.6075 73.4098 36.7346 73.5477 36.8994 73.6479C37.0677 73.7482 37.2646 73.7983 37.4902 73.7983C37.7158 73.7983 37.9109 73.7482 38.0756 73.6479C38.2403 73.5477 38.3675 73.4098 38.457 73.2344C38.5465 73.0553 38.5913 72.8459 38.5913 72.606Z" fill="white"/>
<path d="M34.7683 126.135V127.166H29.5261V126.28L32.072 123.503C32.3513 123.188 32.5715 122.916 32.7326 122.687C32.8938 122.457 33.0066 122.252 33.071 122.069C33.139 121.883 33.1731 121.702 33.1731 121.526C33.1731 121.279 33.1265 121.063 33.0334 120.877C32.9439 120.687 32.8114 120.538 32.6359 120.431C32.4605 120.32 32.2474 120.264 31.9968 120.264C31.7067 120.264 31.4633 120.327 31.2663 120.452C31.0694 120.578 30.9208 120.751 30.8205 120.973C30.7203 121.192 30.6701 121.442 30.6701 121.725H29.3757C29.3757 121.27 29.4795 120.855 29.6872 120.479C29.8949 120.1 30.1957 119.799 30.5896 119.577C30.9834 119.351 31.4579 119.238 32.0129 119.238C32.5357 119.238 32.9797 119.326 33.3449 119.502C33.7102 119.677 33.9877 119.926 34.1775 120.248C34.3708 120.57 34.4675 120.952 34.4675 121.392C34.4675 121.636 34.4281 121.877 34.3493 122.117C34.2705 122.357 34.1578 122.597 34.0109 122.837C33.8677 123.073 33.6976 123.311 33.5007 123.551C33.3038 123.788 33.0871 124.028 32.8508 124.271L31.1589 126.135H34.7683ZM40.9719 119.346V120.055L37.8459 127.166H36.4816L39.6023 120.377H35.5525V119.346H40.9719Z" fill="white"/>
<path d="M35.3188 173.723V174.754H30.0766V173.868L32.6225 171.091C32.9018 170.776 33.122 170.504 33.2831 170.274C33.4443 170.045 33.5571 169.839 33.6215 169.657C33.6896 169.471 33.7236 169.29 33.7236 169.114C33.7236 168.867 33.677 168.651 33.5839 168.464C33.4944 168.275 33.3619 168.126 33.1865 168.019C33.011 167.908 32.798 167.852 32.5473 167.852C32.2573 167.852 32.0138 167.915 31.8168 168.04C31.6199 168.165 31.4713 168.339 31.371 168.561C31.2708 168.779 31.2206 169.03 31.2206 169.313H29.9262C29.9262 168.858 30.0301 168.443 30.2377 168.067C30.4454 167.687 30.7462 167.387 31.1401 167.165C31.534 166.939 32.0084 166.826 32.5634 166.826C33.0862 166.826 33.5302 166.914 33.8955 167.089C34.2607 167.265 34.5382 167.514 34.728 167.836C34.9213 168.158 35.018 168.54 35.018 168.98C35.018 169.223 34.9786 169.465 34.8998 169.705C34.8211 169.945 34.7083 170.185 34.5615 170.425C34.4182 170.661 34.2482 170.899 34.0512 171.139C33.8543 171.375 33.6376 171.615 33.4013 171.859L31.7094 173.723H35.3188ZM40.2387 166.885H40.3998V167.943H40.3085C39.8466 167.943 39.4474 168.015 39.1108 168.158C38.7778 168.301 38.5038 168.498 38.289 168.749C38.0742 169 37.913 169.293 37.8056 169.63C37.7018 169.963 37.6498 170.317 37.6498 170.693V171.923C37.6498 172.235 37.6839 172.511 37.7519 172.75C37.8199 172.987 37.9148 173.186 38.0366 173.347C38.1619 173.504 38.3051 173.624 38.4663 173.707C38.6274 173.789 38.801 173.83 38.9872 173.83C39.1806 173.83 39.3561 173.791 39.5136 173.712C39.6712 173.63 39.8054 173.517 39.9164 173.374C40.0274 173.23 40.1116 173.06 40.1689 172.863C40.2262 172.666 40.2548 172.451 40.2548 172.219C40.2548 171.997 40.2262 171.789 40.1689 171.596C40.1152 171.399 40.0346 171.227 39.9272 171.08C39.8198 170.93 39.6855 170.813 39.5244 170.731C39.3668 170.645 39.1842 170.602 38.9765 170.602C38.7187 170.602 38.4842 170.663 38.2729 170.785C38.0652 170.906 37.8969 171.066 37.768 171.263C37.6427 171.456 37.5746 171.662 37.5639 171.88L37.0698 171.719C37.0984 171.386 37.1718 171.087 37.29 170.822C37.4117 170.557 37.5711 170.332 37.768 170.146C37.9649 169.959 38.1923 169.818 38.4501 169.721C38.7115 169.621 38.998 169.571 39.3095 169.571C39.6891 169.571 40.0185 169.642 40.2978 169.786C40.5771 169.929 40.808 170.124 40.9907 170.371C41.1769 170.615 41.3147 170.894 41.4042 171.209C41.4973 171.521 41.5439 171.846 41.5439 172.187C41.5439 172.562 41.4866 172.913 41.372 173.239C41.2574 173.562 41.0891 173.844 40.8671 174.088C40.6487 174.331 40.3819 174.521 40.0668 174.657C39.7553 174.793 39.4008 174.861 39.0034 174.861C38.5844 174.861 38.2102 174.781 37.8808 174.62C37.555 174.458 37.2774 174.236 37.0483 173.954C36.8227 173.671 36.6508 173.345 36.5327 172.976C36.4145 172.607 36.3554 172.217 36.3554 171.805V171.268C36.3554 170.674 36.4306 170.113 36.581 169.587C36.7314 169.057 36.9623 168.59 37.2739 168.185C37.589 167.78 37.9918 167.464 38.4824 167.234C38.9729 167.002 39.5584 166.885 40.2387 166.885Z" fill="white"/>
<path d="M34.7683 220.058V221.089H29.5261V220.203L32.072 217.426C32.3513 217.111 32.5715 216.839 32.7326 216.61C32.8938 216.381 33.0066 216.175 33.071 215.992C33.139 215.806 33.1731 215.625 33.1731 215.45C33.1731 215.203 33.1265 214.986 33.0334 214.8C32.9439 214.61 32.8114 214.461 32.6359 214.354C32.4605 214.243 32.2474 214.187 31.9968 214.187C31.7067 214.187 31.4633 214.25 31.2663 214.375C31.0694 214.501 30.9208 214.674 30.8205 214.896C30.7203 215.115 30.6701 215.365 30.6701 215.648H29.3757C29.3757 215.194 29.4795 214.778 29.6872 214.402C29.8949 214.023 30.1957 213.722 30.5896 213.5C30.9834 213.274 31.4579 213.161 32.0129 213.161C32.5357 213.161 32.9797 213.249 33.3449 213.425C33.7102 213.6 33.9877 213.849 34.1775 214.171C34.3708 214.494 34.4675 214.875 34.4675 215.315C34.4675 215.559 34.4281 215.8 34.3493 216.04C34.2705 216.28 34.1578 216.52 34.0109 216.76C33.8677 216.996 33.6976 217.235 33.5007 217.474C33.3038 217.711 33.0871 217.951 32.8508 218.194L31.1589 220.058H34.7683ZM37.1369 217.453L36.1057 217.201L36.53 213.269H40.7463V214.365H37.6042L37.3894 216.282C37.5111 216.21 37.6794 216.141 37.8942 216.073C38.1091 216.001 38.3544 215.965 38.6301 215.965C38.9989 215.965 39.3283 216.026 39.6184 216.148C39.912 216.266 40.1608 216.44 40.365 216.669C40.5691 216.894 40.7248 217.17 40.8322 217.496C40.9397 217.818 40.9934 218.182 40.9934 218.586C40.9934 218.948 40.9397 219.286 40.8322 219.601C40.7284 219.917 40.5708 220.194 40.3596 220.434C40.1483 220.674 39.8816 220.862 39.5593 220.998C39.2406 221.13 38.8628 221.197 38.426 221.197C38.1001 221.197 37.7868 221.15 37.486 221.057C37.1888 220.96 36.9221 220.819 36.6858 220.633C36.4494 220.443 36.2596 220.21 36.1164 219.934C35.9732 219.655 35.8908 219.335 35.8693 218.973H37.1369C37.1691 219.227 37.239 219.444 37.3464 219.623C37.4574 219.798 37.6042 219.933 37.7868 220.026C37.9694 220.119 38.1807 220.165 38.4206 220.165C38.639 220.165 38.827 220.128 38.9846 220.053C39.1421 219.974 39.2728 219.863 39.3767 219.72C39.4841 219.573 39.5629 219.401 39.613 219.204C39.6667 219.007 39.6936 218.789 39.6936 218.549C39.6936 218.32 39.6631 218.11 39.6023 217.92C39.545 217.731 39.4572 217.566 39.3391 217.426C39.2245 217.286 39.0795 217.179 38.904 217.104C38.7286 217.025 38.5262 216.986 38.2971 216.986C37.9891 216.986 37.7528 217.03 37.5881 217.12C37.427 217.21 37.2766 217.321 37.1369 217.453Z" fill="white"/>
<path d="M67.7432 217.229H428.999" stroke="#2B2F34" stroke-width="1.25231" stroke-linecap="square"/>
<path d="M67.7432 170.894H428.999" stroke="#2B2F34" stroke-width="1.25231" stroke-linecap="square"/>
<path d="M67.7432 124.558H428.999" stroke="#2B2F34" stroke-width="1.25231" stroke-linecap="square"/>
<path d="M67.7432 78.223H428.999" stroke="#2B2F34" stroke-width="1.25231" stroke-linecap="square"/>
<path d="M67.7441 31.8877H429" stroke="#2B2F34" stroke-width="1.25231" stroke-linecap="square"/>
<path d="M73.6021 142.771C75.2453 140.869 82.2194 145.121 90.7515 142.709C97.4697 140.81 103.314 134.712 111.915 132.869C128.239 129.371 141.562 125.777 149.133 117.423C156.703 109.069 168.066 80.7443 181.607 80.7443C195.148 80.7443 202.041 95.4774 207.149 105.183C212.042 114.478 221.466 136.805 236.705 139.267C253.524 141.984 267.355 158.553 287.423 161.338C298.12 162.822 306.689 159.933 316.249 155.444C325.81 150.955 323.938 149.017 345.44 145.556C363.184 142.7 367.825 132.869 385.212 131.686C402.599 130.503 410.641 167.523 428.998 164.432" stroke="#E80054" stroke-width="2.50462" stroke-linecap="round" stroke-linejoin="round"/>
<path d="M425.549 145.027C416.524 135.125 416.931 147.376 408.399 144.965C401.681 143.066 395.837 136.968 387.236 135.125C371.07 161.061 357.607 131.363 350.018 119.679C342.448 111.325 331.441 165.5 317.9 165.5C247.855 125.341 222.247 139.5 211.728 163.594C201.208 187.687 194.972 133.989 185.412 129.5C175.851 125.011 175.213 151.273 153.711 147.812C135.967 144.956 131.326 135.125 113.939 133.942C96.5519 132.759 88.5101 169.778 70.153 166.688" stroke="#FFC403" stroke-width="2.50462" stroke-linecap="round" stroke-linejoin="round"/>
</g>
</g>
<defs>
<clipPath id="clip0_106_3429">
<rect width="454" height="281" fill="white"/>
</clipPath>
<clipPath id="clip1_106_3429">
<path d="M0 20C0 8.95431 8.9543 0 20 0H434C445.046 0 454 8.95431 454 20V261.145C454 272.19 445.046 281.145 434 281.145H20C8.95429 281.145 0 272.19 0 261.145V20Z" fill="white"/>
</clipPath>
</defs>
</svg>
